<svg xmlns="http://www.w3.org/2000/svg" xmlns:xlink="http://www.w3.org/1999/xlink" width="500" zoomAndPan="magnify" viewBox="0 0 375 374.999991" height="500" preserveAspectRatio="xMidYMid meet" version="1.0"><defs><clipPath id="04fd2a4d5c"><path d="M 168 183 L 219.8125 183 L 219.8125 192 L 168 192 Z M 168 183 " clip-rule="nonzero"/></clipPath><clipPath id="fbfd811d49"><path d="M 178 163 L 219.8125 163 L 219.8125 172 L 178 172 Z M 178 163 " clip-rule="nonzero"/></clipPath><clipPath id="eb81806ad9"><path d="M 199 173 L 219.8125 173 L 219.8125 182 L 199 182 Z M 199 173 " clip-rule="nonzero"/></clipPath><clipPath id="ad5bddb900"><path d="M 155.3125 183 L 165 183 L 165 192 L 155.3125 192 Z M 155.3125 183 " clip-rule="nonzero"/></clipPath><clipPath id="52ef6f28c8"><path d="M 180 193 L 219.8125 193 L 219.8125 202 L 180 202 Z M 180 193 " clip-rule="nonzero"/></clipPath><clipPath id="79d4fcf322"><path d="M 184 202 L 219.8125 202 L 219.8125 211 L 184 211 Z M 184 202 " clip-rule="nonzero"/></clipPath></defs><g clip-path="url(#04fd2a4d5c)"><path fill="#ffbd59" d="M 242.078125 183.402344 L 200.5625 183.402344 L 198.792969 186.46875 L 194.6875 186.46875 L 192.914062 183.402344 C 191.386719 183.402344 172.230469 183.402344 170.703125 183.402344 L 168.410156 187.375 L 170.703125 191.347656 C 172.230469 191.347656 191.386719 191.347656 192.914062 191.347656 L 194.6875 188.28125 L 198.792969 188.28125 L 200.5625 191.347656 L 242.078125 191.347656 C 242.535156 188.722656 242.535156 186.035156 242.078125 183.402344 Z M 242.078125 183.402344 " fill-opacity="1" fill-rule="nonzero"/></g><g clip-path="url(#fbfd811d49)"><path fill="#ffbd59" d="M 185.082031 171.820312 L 186.855469 168.757812 L 190.960938 168.757812 L 192.730469 171.820312 L 236.5 171.820312 C 228.273438 162.546875 219.046875 163.871094 207.921875 163.871094 L 192.730469 163.871094 L 190.960938 166.9375 L 186.855469 166.9375 L 185.082031 163.871094 L 180.496094 163.871094 L 178.203125 167.84375 L 180.496094 171.8125 L 185.082031 171.8125 Z M 185.082031 171.820312 " fill-opacity="1" fill-rule="nonzero"/></g><g clip-path="url(#eb81806ad9)"><path fill="#ffbd59" d="M 212.5 176.707031 L 208.394531 176.707031 L 206.625 173.640625 L 202.039062 173.640625 L 199.746094 177.613281 L 202.039062 181.585938 L 206.625 181.585938 L 208.394531 178.519531 L 212.5 178.519531 L 214.273438 181.585938 L 241.691406 181.585938 C 240.953125 178.683594 239.667969 175.996094 237.957031 173.632812 L 214.273438 173.632812 Z M 212.5 176.707031 " fill-opacity="1" fill-rule="nonzero"/></g><g clip-path="url(#ad5bddb900)"><path fill="#ffbd59" d="M 157.605469 183.402344 L 155.3125 187.375 L 157.605469 191.355469 L 162.199219 191.355469 L 164.492188 187.375 L 162.199219 183.402344 Z M 157.605469 183.402344 " fill-opacity="1" fill-rule="nonzero"/></g><path fill="#ffbd59" d="M 186.648438 177.613281 L 188.941406 181.585938 L 193.535156 181.585938 L 195.828125 177.613281 L 193.535156 173.640625 L 188.941406 173.640625 Z M 186.648438 177.613281 " fill-opacity="1" fill-rule="nonzero"/><path fill="#ffbd59" d="M 173.277344 202.929688 L 170.976562 206.90625 L 173.277344 210.878906 L 177.863281 210.878906 L 180.15625 206.90625 L 177.863281 202.929688 Z M 173.277344 202.929688 " fill-opacity="1" fill-rule="nonzero"/><g clip-path="url(#52ef6f28c8)"><path fill="#ffbd59" d="M 192.914062 196.230469 L 188.808594 196.230469 L 187.035156 193.167969 L 182.449219 193.167969 L 180.15625 197.136719 L 182.449219 201.109375 L 187.035156 201.109375 L 188.808594 198.042969 L 192.914062 198.042969 L 194.6875 201.109375 L 237.949219 201.109375 C 239.660156 198.746094 240.945312 196.058594 241.683594 193.160156 C 227.320312 193.160156 209.042969 193.160156 194.679688 193.160156 Z M 192.914062 196.230469 " fill-opacity="1" fill-rule="nonzero"/></g><g clip-path="url(#79d4fcf322)"><path fill="#ffbd59" d="M 204.667969 206 L 200.5625 206 L 198.792969 202.9375 C 194.65625 202.9375 190.511719 202.9375 186.367188 202.9375 L 184.074219 206.90625 L 186.367188 210.878906 C 190.511719 210.878906 194.648438 210.878906 198.792969 210.878906 L 200.5625 207.8125 L 204.667969 207.8125 L 206.441406 210.878906 C 218.191406 210.878906 228.0625 212.445312 236.5 202.929688 L 206.441406 202.929688 Z M 204.667969 206 " fill-opacity="1" fill-rule="nonzero"/></g><path stroke-linecap="round" transform="matrix(0, 0.75, -0.75, 0, 189.749596, 159.251942)" fill="none" stroke-linejoin="miter" d="M 1.497411 1.499461 L 73.830749 1.499461 " stroke="#ffbd59" stroke-width="3" stroke-opacity="1" stroke-miterlimit="4"/></svg>